<mxfile host="app.diagrams.net" modified="2024-07-19T18:18:04.876Z" agent="Mozilla/5.0 (Windows NT 10.0; Win64; x64) AppleWebKit/537.36 (KHTML, like Gecko) Chrome/126.0.0.0 Safari/537.36" etag="KuDg1_55Ze6Mpfknvr7T" version="24.7.1" type="github">
  <diagram name="Page-1" id="74e2e168-ea6b-b213-b513-2b3c1d86103e">
    <mxGraphModel dx="1395" dy="622" grid="1" gridSize="10" guides="1" tooltips="1" connect="1" arrows="1" fold="1" page="1" pageScale="1" pageWidth="827" pageHeight="1169" background="none" math="0" shadow="0">
      <root>
        <mxCell id="0" />
        <mxCell id="1" parent="0" />
        <mxCell id="77e6c97f196da883-1" value="LaRE" style="swimlane;html=1;childLayout=stackLayout;startSize=20;rounded=0;shadow=0;labelBackgroundColor=none;strokeWidth=1;fontFamily=Verdana;fontSize=8;align=center;glass=0;" parent="1" vertex="1">
          <mxGeometry y="80" width="820" height="540" as="geometry">
            <mxRectangle x="70" y="40" width="60" height="20" as="alternateBounds" />
          </mxGeometry>
        </mxCell>
        <mxCell id="77e6c97f196da883-2" value="Cliente" style="swimlane;html=1;startSize=20;fillColor=#1ba1e2;fontColor=#ffffff;strokeColor=#006EAF;" parent="77e6c97f196da883-1" vertex="1">
          <mxGeometry y="20" width="170" height="520" as="geometry" />
        </mxCell>
        <mxCell id="v88Gp07WcJdLffA2qub5-75" style="edgeStyle=orthogonalEdgeStyle;rounded=0;orthogonalLoop=1;jettySize=auto;html=1;entryX=0.5;entryY=1;entryDx=0;entryDy=0;" edge="1" parent="77e6c97f196da883-2" target="v88Gp07WcJdLffA2qub5-77">
          <mxGeometry relative="1" as="geometry">
            <mxPoint x="79" y="265.0000000000001" as="sourcePoint" />
            <mxPoint x="138.5" y="239.9999999999999" as="targetPoint" />
            <Array as="points">
              <mxPoint x="122" y="265" />
              <mxPoint x="122" y="240" />
              <mxPoint x="122" y="240" />
            </Array>
          </mxGeometry>
        </mxCell>
        <mxCell id="v88Gp07WcJdLffA2qub5-76" value="Não" style="edgeLabel;html=1;align=center;verticalAlign=middle;resizable=0;points=[];" vertex="1" connectable="0" parent="v88Gp07WcJdLffA2qub5-75">
          <mxGeometry x="0.0766" relative="1" as="geometry">
            <mxPoint x="-21" as="offset" />
          </mxGeometry>
        </mxCell>
        <mxCell id="77e6c97f196da883-13" value="&lt;div&gt;&lt;b style=&quot;background-color: rgb(255, 255, 255);&quot;&gt;OK?&lt;/b&gt;&lt;/div&gt;" style="rhombus;whiteSpace=wrap;html=1;rounded=0;shadow=0;labelBackgroundColor=none;strokeWidth=1;fontFamily=Verdana;fontSize=8;align=center;" parent="77e6c97f196da883-2" vertex="1">
          <mxGeometry x="15" y="240" width="61" height="50" as="geometry" />
        </mxCell>
        <mxCell id="Stz53FhgeXE6KHRWkM9m-17" value="Utilizador" style="text;html=1;strokeColor=none;fillColor=none;align=center;verticalAlign=middle;whiteSpace=wrap;rounded=0;" parent="77e6c97f196da883-2" vertex="1">
          <mxGeometry x="60" y="40" width="60" height="30" as="geometry" />
        </mxCell>
        <mxCell id="v88Gp07WcJdLffA2qub5-71" value="" style="edgeStyle=orthogonalEdgeStyle;rounded=0;orthogonalLoop=1;jettySize=auto;html=1;" edge="1" parent="77e6c97f196da883-2" source="v88Gp07WcJdLffA2qub5-70" target="77e6c97f196da883-13">
          <mxGeometry relative="1" as="geometry" />
        </mxCell>
        <mxCell id="v88Gp07WcJdLffA2qub5-70" value="Escolha circuito" style="rounded=1;whiteSpace=wrap;html=1;" vertex="1" parent="77e6c97f196da883-2">
          <mxGeometry x="10" y="170" width="71" height="30" as="geometry" />
        </mxCell>
        <mxCell id="v88Gp07WcJdLffA2qub5-78" style="edgeStyle=orthogonalEdgeStyle;rounded=0;orthogonalLoop=1;jettySize=auto;html=1;exitX=0.5;exitY=0;exitDx=0;exitDy=0;entryX=1;entryY=0.5;entryDx=0;entryDy=0;" edge="1" parent="77e6c97f196da883-2" source="v88Gp07WcJdLffA2qub5-77" target="v88Gp07WcJdLffA2qub5-70">
          <mxGeometry relative="1" as="geometry" />
        </mxCell>
        <mxCell id="v88Gp07WcJdLffA2qub5-77" value="ERRO!" style="shape=parallelogram;perimeter=parallelogramPerimeter;whiteSpace=wrap;html=1;fixedSize=1;fillColor=#E6E6E6;" vertex="1" parent="77e6c97f196da883-2">
          <mxGeometry x="81" y="210" width="81" height="20" as="geometry" />
        </mxCell>
        <mxCell id="77e6c97f196da883-40" style="edgeStyle=orthogonalEdgeStyle;rounded=1;html=1;labelBackgroundColor=none;startArrow=none;startFill=0;startSize=5;endArrow=classicThin;endFill=1;endSize=5;jettySize=auto;orthogonalLoop=1;strokeWidth=1;fontFamily=Verdana;fontSize=8" parent="77e6c97f196da883-1" edge="1">
          <mxGeometry relative="1" as="geometry">
            <mxPoint x="660" y="20" as="sourcePoint" />
            <mxPoint x="660" y="20" as="targetPoint" />
          </mxGeometry>
        </mxCell>
        <mxCell id="8H8KK3qULcMsiAke63Tr-33" style="edgeStyle=orthogonalEdgeStyle;rounded=0;orthogonalLoop=1;jettySize=auto;html=1;exitX=0.5;exitY=1;exitDx=0;exitDy=0;" parent="77e6c97f196da883-1" source="8H8KK3qULcMsiAke63Tr-32" target="8H8KK3qULcMsiAke63Tr-32" edge="1">
          <mxGeometry relative="1" as="geometry" />
        </mxCell>
        <mxCell id="8H8KK3qULcMsiAke63Tr-32" value="PC" style="swimlane;whiteSpace=wrap;html=1;startSize=20;fillColor=#60a917;fontColor=#ffffff;strokeColor=#2D7600;" parent="77e6c97f196da883-1" vertex="1">
          <mxGeometry x="170" y="20" width="210" height="520" as="geometry" />
        </mxCell>
        <mxCell id="v88Gp07WcJdLffA2qub5-2" value="&lt;span style=&quot;font-weight: normal;&quot;&gt;Servidor&lt;/span&gt;" style="swimlane;html=1;startSize=20;" vertex="1" parent="8H8KK3qULcMsiAke63Tr-32">
          <mxGeometry y="20" width="210" height="500" as="geometry" />
        </mxCell>
        <mxCell id="v88Gp07WcJdLffA2qub5-7" value="" style="edgeStyle=orthogonalEdgeStyle;rounded=0;orthogonalLoop=1;jettySize=auto;html=1;" edge="1" parent="v88Gp07WcJdLffA2qub5-2" source="v88Gp07WcJdLffA2qub5-1" target="v88Gp07WcJdLffA2qub5-6">
          <mxGeometry relative="1" as="geometry" />
        </mxCell>
        <mxCell id="v88Gp07WcJdLffA2qub5-11" value="Não" style="edgeLabel;html=1;align=center;verticalAlign=middle;resizable=0;points=[];" vertex="1" connectable="0" parent="v88Gp07WcJdLffA2qub5-7">
          <mxGeometry x="-0.1776" relative="1" as="geometry">
            <mxPoint as="offset" />
          </mxGeometry>
        </mxCell>
        <mxCell id="v88Gp07WcJdLffA2qub5-1" value="login?" style="rhombus;whiteSpace=wrap;html=1;" vertex="1" parent="v88Gp07WcJdLffA2qub5-2">
          <mxGeometry x="20" y="50" width="60" height="60" as="geometry" />
        </mxCell>
        <mxCell id="v88Gp07WcJdLffA2qub5-6" value="Registo" style="whiteSpace=wrap;html=1;" vertex="1" parent="v88Gp07WcJdLffA2qub5-2">
          <mxGeometry x="130" y="65" width="66" height="30" as="geometry" />
        </mxCell>
        <mxCell id="v88Gp07WcJdLffA2qub5-19" value="" style="edgeStyle=orthogonalEdgeStyle;rounded=0;orthogonalLoop=1;jettySize=auto;html=1;" edge="1" parent="v88Gp07WcJdLffA2qub5-2" source="v88Gp07WcJdLffA2qub5-15" target="v88Gp07WcJdLffA2qub5-18">
          <mxGeometry relative="1" as="geometry" />
        </mxCell>
        <mxCell id="v88Gp07WcJdLffA2qub5-20" value="parâmetros" style="edgeLabel;html=1;align=center;verticalAlign=middle;resizable=0;points=[];" vertex="1" connectable="0" parent="v88Gp07WcJdLffA2qub5-19">
          <mxGeometry x="-0.0884" y="-2" relative="1" as="geometry">
            <mxPoint x="1" y="-19" as="offset" />
          </mxGeometry>
        </mxCell>
        <mxCell id="v88Gp07WcJdLffA2qub5-15" value="HTML" style="rounded=1;whiteSpace=wrap;html=1;arcSize=50;" vertex="1" parent="v88Gp07WcJdLffA2qub5-2">
          <mxGeometry x="20" y="300" width="60" height="20" as="geometry" />
        </mxCell>
        <mxCell id="v88Gp07WcJdLffA2qub5-18" value="Flask" style="rounded=1;whiteSpace=wrap;html=1;" vertex="1" parent="v88Gp07WcJdLffA2qub5-2">
          <mxGeometry x="140" y="300" width="60" height="20" as="geometry" />
        </mxCell>
        <mxCell id="v88Gp07WcJdLffA2qub5-61" value="pyVirtualBench" style="edgeLabel;html=1;align=center;verticalAlign=middle;resizable=0;points=[];" vertex="1" connectable="0" parent="v88Gp07WcJdLffA2qub5-2">
          <mxGeometry x="179.9969565217392" y="370" as="geometry">
            <mxPoint x="-13" y="-110" as="offset" />
          </mxGeometry>
        </mxCell>
        <mxCell id="v88Gp07WcJdLffA2qub5-10" value="" style="endArrow=classic;html=1;rounded=0;entryX=0;entryY=0.5;entryDx=0;entryDy=0;exitX=0.5;exitY=1;exitDx=0;exitDy=0;" edge="1" parent="77e6c97f196da883-1" source="Stz53FhgeXE6KHRWkM9m-17" target="v88Gp07WcJdLffA2qub5-1">
          <mxGeometry width="50" height="50" relative="1" as="geometry">
            <mxPoint x="120" y="140" as="sourcePoint" />
            <mxPoint x="620" y="320" as="targetPoint" />
            <Array as="points">
              <mxPoint x="90" y="120" />
            </Array>
          </mxGeometry>
        </mxCell>
        <mxCell id="v88Gp07WcJdLffA2qub5-22" style="edgeStyle=orthogonalEdgeStyle;rounded=0;orthogonalLoop=1;jettySize=auto;html=1;entryX=0;entryY=0.5;entryDx=0;entryDy=0;" edge="1" parent="77e6c97f196da883-1" source="v88Gp07WcJdLffA2qub5-18" target="v88Gp07WcJdLffA2qub5-21">
          <mxGeometry relative="1" as="geometry" />
        </mxCell>
        <mxCell id="v88Gp07WcJdLffA2qub5-23" value="string" style="edgeLabel;html=1;align=center;verticalAlign=middle;resizable=0;points=[];" vertex="1" connectable="0" parent="v88Gp07WcJdLffA2qub5-22">
          <mxGeometry x="0.2211" y="2" relative="1" as="geometry">
            <mxPoint x="-29" y="2" as="offset" />
          </mxGeometry>
        </mxCell>
        <mxCell id="v88Gp07WcJdLffA2qub5-53" style="edgeStyle=orthogonalEdgeStyle;rounded=0;orthogonalLoop=1;jettySize=auto;html=1;entryX=0;entryY=0.5;entryDx=0;entryDy=0;exitX=0.5;exitY=1;exitDx=0;exitDy=0;" edge="1" parent="77e6c97f196da883-1" source="77e6c97f196da883-13" target="v88Gp07WcJdLffA2qub5-15">
          <mxGeometry relative="1" as="geometry">
            <mxPoint x="190.0000000000001" y="415.0204081632652" as="sourcePoint" />
            <Array as="points">
              <mxPoint x="46" y="350" />
            </Array>
          </mxGeometry>
        </mxCell>
        <mxCell id="v88Gp07WcJdLffA2qub5-54" value="OK" style="edgeLabel;html=1;align=center;verticalAlign=middle;resizable=0;points=[];" vertex="1" connectable="0" parent="v88Gp07WcJdLffA2qub5-53">
          <mxGeometry x="-0.3118" relative="1" as="geometry">
            <mxPoint x="24" as="offset" />
          </mxGeometry>
        </mxCell>
        <mxCell id="77e6c97f196da883-5" value="&lt;font style=&quot;&quot; color=&quot;#ffffff&quot;&gt;VirtualBench&lt;/font&gt;" style="swimlane;html=1;startSize=20;fillColor=#0000FF;" parent="77e6c97f196da883-1" vertex="1">
          <mxGeometry x="380" y="20" width="130" height="520" as="geometry" />
        </mxCell>
        <mxCell id="v88Gp07WcJdLffA2qub5-56" value="&lt;div&gt;&lt;span style=&quot;background-color: initial;&quot;&gt;Leitura&amp;nbsp;&lt;/span&gt;&lt;br&gt;&lt;/div&gt;&lt;div&gt;&lt;span style=&quot;background-color: initial;&quot;&gt;valores&lt;/span&gt;&lt;/div&gt;" style="whiteSpace=wrap;html=1;" vertex="1" parent="77e6c97f196da883-5">
          <mxGeometry x="30" y="380" width="83" height="30" as="geometry" />
        </mxCell>
        <mxCell id="v88Gp07WcJdLffA2qub5-59" value="&lt;div&gt;Configura o VirtualBench&lt;/div&gt;" style="whiteSpace=wrap;html=1;" vertex="1" parent="77e6c97f196da883-5">
          <mxGeometry x="30" y="240" width="83" height="30" as="geometry" />
        </mxCell>
        <mxCell id="77e6c97f196da883-3" value="RaspberryPI" style="swimlane;html=1;startSize=20;fillColor=#e51400;fontColor=#ffffff;strokeColor=#B20000;" parent="77e6c97f196da883-1" vertex="1">
          <mxGeometry x="510" y="20" width="160" height="520" as="geometry" />
        </mxCell>
        <mxCell id="v88Gp07WcJdLffA2qub5-25" value="" style="edgeStyle=orthogonalEdgeStyle;rounded=0;orthogonalLoop=1;jettySize=auto;html=1;" edge="1" parent="77e6c97f196da883-3" source="v88Gp07WcJdLffA2qub5-21" target="v88Gp07WcJdLffA2qub5-24">
          <mxGeometry relative="1" as="geometry" />
        </mxCell>
        <mxCell id="v88Gp07WcJdLffA2qub5-26" value="Não" style="edgeLabel;html=1;align=center;verticalAlign=middle;resizable=0;points=[];" vertex="1" connectable="0" parent="v88Gp07WcJdLffA2qub5-25">
          <mxGeometry x="-0.081" relative="1" as="geometry">
            <mxPoint as="offset" />
          </mxGeometry>
        </mxCell>
        <mxCell id="v88Gp07WcJdLffA2qub5-21" value="String OK?" style="rhombus;whiteSpace=wrap;html=1;" vertex="1" parent="77e6c97f196da883-3">
          <mxGeometry x="30" y="290" width="80" height="80" as="geometry" />
        </mxCell>
        <mxCell id="v88Gp07WcJdLffA2qub5-27" style="edgeStyle=orthogonalEdgeStyle;rounded=0;orthogonalLoop=1;jettySize=auto;html=1;entryX=1;entryY=0.5;entryDx=0;entryDy=0;exitX=1;exitY=0.5;exitDx=0;exitDy=0;" edge="1" parent="77e6c97f196da883-3" source="v88Gp07WcJdLffA2qub5-24" target="v88Gp07WcJdLffA2qub5-21">
          <mxGeometry relative="1" as="geometry" />
        </mxCell>
        <mxCell id="v88Gp07WcJdLffA2qub5-24" value="Espera..." style="whiteSpace=wrap;html=1;" vertex="1" parent="77e6c97f196da883-3">
          <mxGeometry x="30" y="230" width="80" height="20" as="geometry" />
        </mxCell>
        <mxCell id="v88Gp07WcJdLffA2qub5-63" value="Envia string" style="whiteSpace=wrap;html=1;" vertex="1" parent="77e6c97f196da883-3">
          <mxGeometry x="30" y="410" width="80" height="20" as="geometry" />
        </mxCell>
        <mxCell id="v88Gp07WcJdLffA2qub5-36" style="edgeStyle=orthogonalEdgeStyle;rounded=0;orthogonalLoop=1;jettySize=auto;html=1;entryX=0.5;entryY=0;entryDx=0;entryDy=0;exitX=0.5;exitY=1;exitDx=0;exitDy=0;" edge="1" parent="77e6c97f196da883-3" source="v88Gp07WcJdLffA2qub5-21" target="v88Gp07WcJdLffA2qub5-63">
          <mxGeometry relative="1" as="geometry" />
        </mxCell>
        <mxCell id="v88Gp07WcJdLffA2qub5-37" value="Sim" style="edgeLabel;html=1;align=center;verticalAlign=middle;resizable=0;points=[];" vertex="1" connectable="0" parent="v88Gp07WcJdLffA2qub5-36">
          <mxGeometry x="-0.5246" y="-5" relative="1" as="geometry">
            <mxPoint y="-5" as="offset" />
          </mxGeometry>
        </mxCell>
        <mxCell id="v88Gp07WcJdLffA2qub5-28" value="LaRE" style="swimlane;html=1;startSize=20;fillColor=#FF8000;fontColor=#ffffff;strokeColor=#B20000;" vertex="1" parent="77e6c97f196da883-1">
          <mxGeometry x="670" y="20" width="150" height="520" as="geometry" />
        </mxCell>
        <mxCell id="v88Gp07WcJdLffA2qub5-35" value="" style="edgeStyle=orthogonalEdgeStyle;rounded=0;orthogonalLoop=1;jettySize=auto;html=1;" edge="1" parent="v88Gp07WcJdLffA2qub5-28" source="v88Gp07WcJdLffA2qub5-33" target="v88Gp07WcJdLffA2qub5-34">
          <mxGeometry relative="1" as="geometry" />
        </mxCell>
        <mxCell id="v88Gp07WcJdLffA2qub5-33" value="Activa Relés" style="whiteSpace=wrap;html=1;" vertex="1" parent="v88Gp07WcJdLffA2qub5-28">
          <mxGeometry x="45" y="230" width="80" height="20" as="geometry" />
        </mxCell>
        <mxCell id="v88Gp07WcJdLffA2qub5-34" value="Circuitos" style="whiteSpace=wrap;html=1;" vertex="1" parent="v88Gp07WcJdLffA2qub5-28">
          <mxGeometry x="45" y="320" width="80" height="20" as="geometry" />
        </mxCell>
        <mxCell id="v88Gp07WcJdLffA2qub5-64" style="edgeStyle=orthogonalEdgeStyle;rounded=0;orthogonalLoop=1;jettySize=auto;html=1;entryX=0;entryY=0.5;entryDx=0;entryDy=0;" edge="1" parent="77e6c97f196da883-1" source="v88Gp07WcJdLffA2qub5-63" target="v88Gp07WcJdLffA2qub5-33">
          <mxGeometry relative="1" as="geometry">
            <Array as="points">
              <mxPoint x="690" y="440" />
              <mxPoint x="690" y="260" />
            </Array>
          </mxGeometry>
        </mxCell>
        <mxCell id="v88Gp07WcJdLffA2qub5-65" style="edgeStyle=orthogonalEdgeStyle;rounded=0;orthogonalLoop=1;jettySize=auto;html=1;entryX=0;entryY=0.5;entryDx=0;entryDy=0;exitX=0.5;exitY=0;exitDx=0;exitDy=0;" edge="1" parent="77e6c97f196da883-1" source="v88Gp07WcJdLffA2qub5-18" target="v88Gp07WcJdLffA2qub5-59">
          <mxGeometry relative="1" as="geometry">
            <Array as="points">
              <mxPoint x="340" y="275" />
            </Array>
          </mxGeometry>
        </mxCell>
        <mxCell id="v88Gp07WcJdLffA2qub5-66" style="edgeStyle=orthogonalEdgeStyle;rounded=0;orthogonalLoop=1;jettySize=auto;html=1;entryX=0.5;entryY=1;entryDx=0;entryDy=0;" edge="1" parent="77e6c97f196da883-1" source="v88Gp07WcJdLffA2qub5-34" target="v88Gp07WcJdLffA2qub5-56">
          <mxGeometry relative="1" as="geometry">
            <Array as="points">
              <mxPoint x="810" y="350" />
              <mxPoint x="810" y="510" />
              <mxPoint x="452" y="510" />
              <mxPoint x="452" y="430" />
            </Array>
          </mxGeometry>
        </mxCell>
        <mxCell id="v88Gp07WcJdLffA2qub5-67" style="edgeStyle=orthogonalEdgeStyle;rounded=0;orthogonalLoop=1;jettySize=auto;html=1;entryX=0.5;entryY=1;entryDx=0;entryDy=0;" edge="1" parent="77e6c97f196da883-1" source="v88Gp07WcJdLffA2qub5-56" target="v88Gp07WcJdLffA2qub5-18">
          <mxGeometry relative="1" as="geometry" />
        </mxCell>
        <mxCell id="v88Gp07WcJdLffA2qub5-68" value="pyVirtualBench" style="edgeLabel;html=1;align=center;verticalAlign=middle;resizable=0;points=[];" vertex="1" connectable="0" parent="v88Gp07WcJdLffA2qub5-67">
          <mxGeometry x="0.0359" y="3" relative="1" as="geometry">
            <mxPoint x="-12" y="-18" as="offset" />
          </mxGeometry>
        </mxCell>
        <mxCell id="v88Gp07WcJdLffA2qub5-72" style="edgeStyle=orthogonalEdgeStyle;rounded=0;orthogonalLoop=1;jettySize=auto;html=1;exitX=0.5;exitY=1;exitDx=0;exitDy=0;" edge="1" parent="77e6c97f196da883-1" source="v88Gp07WcJdLffA2qub5-1">
          <mxGeometry relative="1" as="geometry">
            <mxPoint x="60" y="190" as="targetPoint" />
            <Array as="points">
              <mxPoint x="220" y="170" />
              <mxPoint x="60" y="170" />
            </Array>
          </mxGeometry>
        </mxCell>
        <mxCell id="v88Gp07WcJdLffA2qub5-74" value="Sim" style="edgeLabel;html=1;align=center;verticalAlign=middle;resizable=0;points=[];" vertex="1" connectable="0" parent="v88Gp07WcJdLffA2qub5-72">
          <mxGeometry x="-0.8613" y="2" relative="1" as="geometry">
            <mxPoint x="-2" y="-6" as="offset" />
          </mxGeometry>
        </mxCell>
        <mxCell id="v88Gp07WcJdLffA2qub5-73" style="edgeStyle=orthogonalEdgeStyle;rounded=0;orthogonalLoop=1;jettySize=auto;html=1;" edge="1" parent="77e6c97f196da883-1" source="v88Gp07WcJdLffA2qub5-6">
          <mxGeometry relative="1" as="geometry">
            <mxPoint x="60" y="190" as="targetPoint" />
            <Array as="points">
              <mxPoint x="330" y="170" />
              <mxPoint x="60" y="170" />
            </Array>
          </mxGeometry>
        </mxCell>
      </root>
    </mxGraphModel>
  </diagram>
</mxfile>
